<svg width="111" height="30" viewBox="0 0 111 30" fill="none" xmlns="http://www.w3.org/2000/svg">
<g clip-path="url(#clip0)">
<path fill-rule="evenodd" clip-rule="evenodd" d="M31.196 19.474C30.2914 19.3065 29.4588 18.8687 28.808 18.2183C28.1573 17.5679 27.719 16.7355 27.551 15.831C27.5382 15.7853 27.5134 15.7438 27.479 15.711C27.4506 15.6827 27.4164 15.6609 27.3788 15.6471C27.3412 15.6332 27.301 15.6278 27.261 15.631L27.191 15.639L25.623 15.846C25.2405 15.9331 24.883 16.1065 24.5778 16.353C24.2726 16.5995 24.0278 16.9125 23.8621 17.2681C23.6965 17.6236 23.6143 18.0124 23.6219 18.4046C23.6295 18.7968 23.7267 19.1821 23.906 19.531L23.966 19.635C24.444 20.433 25.229 20.892 26.103 20.925C26.1259 21.5488 26.3749 22.143 26.8035 22.5968C27.2322 23.0506 27.8112 23.333 28.4327 23.3914C29.0542 23.4497 29.6757 23.2801 30.1814 22.9141C30.687 22.5481 31.0423 22.0106 31.181 21.402L31.387 19.836L31.395 19.766C31.398 19.7261 31.3925 19.6859 31.3787 19.6483C31.3649 19.6107 31.3432 19.5765 31.315 19.548C31.2837 19.5119 31.2422 19.4861 31.196 19.474ZM27.551 14.174C27.7185 13.2694 28.1563 12.4368 28.8067 11.786C29.4571 11.1353 30.2895 10.697 31.194 10.529C31.2397 10.5162 31.2812 10.4914 31.314 10.457C31.374 10.397 31.401 10.317 31.395 10.239L31.387 10.169L31.179 8.601C31.0919 8.21851 30.9185 7.861 30.672 7.55581C30.4255 7.25062 30.1125 7.00582 29.7569 6.84014C29.4014 6.67446 29.0126 6.59228 28.6204 6.59988C28.2282 6.60748 27.8429 6.70467 27.494 6.884L27.39 6.944C26.592 7.422 26.133 8.207 26.101 9.081C25.4771 9.1037 24.8828 9.35253 24.4289 9.7811C23.9749 10.2097 23.6923 10.7887 23.6338 11.4103C23.5753 12.0318 23.7449 12.6534 24.1109 13.1592C24.4769 13.6649 25.0143 14.0203 25.623 14.159L27.189 14.364L27.259 14.373C27.2989 14.376 27.3391 14.3705 27.3767 14.3567C27.4143 14.3429 27.4485 14.3212 27.477 14.293C27.5131 14.2617 27.539 14.2202 27.551 14.174ZM36.496 14.174C36.3285 13.2694 35.8907 12.4368 35.2403 11.786C34.5899 11.1353 33.7575 10.697 32.853 10.529C32.8073 10.5162 32.7658 10.4914 32.733 10.457C32.7046 10.4287 32.6828 10.3945 32.669 10.3568C32.6551 10.3192 32.6497 10.279 32.653 10.239L32.661 10.169L32.868 8.601C32.9551 8.21851 33.1285 7.861 33.375 7.55581C33.6215 7.25062 33.9345 7.00582 34.2901 6.84014C34.6456 6.67446 35.0344 6.59228 35.4266 6.59988C35.8188 6.60748 36.2041 6.70467 36.553 6.884L36.657 6.944C37.455 7.422 37.915 8.207 37.947 9.081C38.5709 9.1037 39.1652 9.35253 39.6191 9.7811C40.0731 10.2097 40.3557 10.7887 40.4142 11.4103C40.4727 12.0318 40.3031 12.6534 39.9371 13.1592C39.5711 13.6649 39.0337 14.0203 38.425 14.159L36.858 14.364L36.788 14.373C36.7481 14.376 36.7079 14.3705 36.6703 14.3567C36.6327 14.3429 36.5985 14.3212 36.57 14.293C36.5339 14.2617 36.508 14.2202 36.496 14.174ZM32.851 19.474C33.7556 19.3065 34.5882 18.8687 35.239 18.2183C35.8897 17.5679 36.328 16.7355 36.496 15.831C36.5088 15.7853 36.5336 15.7438 36.568 15.711C36.628 15.651 36.708 15.624 36.786 15.631L36.856 15.639L38.425 15.846C38.8075 15.9331 39.165 16.1065 39.4702 16.353C39.7754 16.5995 40.0202 16.9125 40.1859 17.2681C40.3515 17.6236 40.4337 18.0124 40.4261 18.4046C40.4185 18.7968 40.3213 19.1821 40.142 19.531L40.082 19.635C39.604 20.433 38.818 20.892 37.944 20.925C37.9211 21.5488 37.6721 22.143 37.2435 22.5968C36.8148 23.0506 36.2358 23.333 35.6143 23.3914C34.9928 23.4497 34.3713 23.2801 33.8656 22.9141C33.36 22.5481 33.0047 22.0106 32.866 21.402L32.661 19.836L32.652 19.766C32.649 19.7261 32.6545 19.6859 32.6683 19.6483C32.6821 19.6107 32.7038 19.5765 32.732 19.548C32.7635 19.5117 32.8054 19.4859 32.852 19.474H32.851Z" fill="#102335"/>
<path fill-rule="evenodd" clip-rule="evenodd" d="M15.378 10.323C14.3753 8.82673 12.9182 7.6924 11.2216 7.08736C9.52512 6.48233 7.67905 6.43864 5.9558 6.96274C4.23256 7.48684 2.72341 8.55097 1.65103 9.99813C0.578655 11.4453 -0.000156079 13.1988 1.2085e-07 15C-0.000305346 16.8015 0.578485 18.5554 1.65096 20.0028C2.72344 21.4503 4.2328 22.5146 5.95632 23.0389C7.67984 23.5631 9.52623 23.5194 11.223 22.9143C12.9198 22.3091 14.3772 21.1746 15.38 19.678C15.4465 19.5428 15.4599 19.3875 15.4175 19.2429C15.3751 19.0983 15.28 18.9749 15.151 18.897L12.778 17.527C12.6545 17.4569 12.51 17.4333 12.3706 17.4605C12.2313 17.4876 12.1062 17.5637 12.018 17.675C11.4549 18.4365 10.6659 19.0009 9.76336 19.2879C8.86081 19.5749 7.89072 19.5698 6.99123 19.2734C6.09174 18.9769 5.30871 18.4043 4.75364 17.6369C4.19857 16.8695 3.89975 15.9466 3.89975 14.9995C3.89975 14.0524 4.19857 13.1295 4.75364 12.3621C5.30871 11.5947 6.09174 11.0221 6.99123 10.7256C7.89072 10.4292 8.86081 10.4241 9.76336 10.7111C10.6659 10.9981 11.4549 11.5625 12.018 12.324C12.1066 12.4348 12.2316 12.5105 12.3708 12.5376C12.51 12.5647 12.6543 12.5415 12.778 12.472L15.151 11.102C15.2794 11.0238 15.3739 10.9004 15.4159 10.7561C15.4579 10.6117 15.4444 10.4569 15.378 10.322V10.323ZM17.547 0.599001V22.5C17.547 22.833 17.816 23.1 18.146 23.1H20.846C20.9248 23.1001 21.0029 23.0847 21.0758 23.0546C21.1486 23.0245 21.2148 22.9803 21.2706 22.9246C21.3263 22.8688 21.3705 22.8026 21.4006 22.7298C21.4307 22.6569 21.4461 22.5788 21.446 22.5V0.600001C21.4461 0.521218 21.4307 0.443185 21.4006 0.370386C21.3705 0.297587 21.3263 0.231457 21.2705 0.175795C21.2147 0.120133 21.1485 0.0760374 21.0757 0.0460405C21.0028 0.0160436 20.9248 0.000737291 20.846 0.00100089H18.148C18.0692 0.00086946 17.9912 0.0162588 17.9183 0.0462903C17.8455 0.0763217 17.7792 0.120407 17.7234 0.176029C17.6676 0.231652 17.6233 0.297722 17.5931 0.370467C17.5628 0.443212 17.5471 0.521208 17.547 0.600001V0.599001ZM41.142 7.288L46.775 22.761C46.8241 22.8624 46.9008 22.948 46.9963 23.0077C47.0919 23.0675 47.2023 23.0992 47.315 23.099H51.05C51.1627 23.0994 51.2733 23.0679 51.3689 23.008C51.4644 22.9482 51.5411 22.8626 51.59 22.761L57.222 7.288C57.2356 7.2431 57.2385 7.19564 57.2304 7.14943C57.2224 7.10321 57.2036 7.05953 57.1756 7.0219C57.1476 6.98426 57.1111 6.95372 57.0692 6.93272C57.0272 6.91173 56.9809 6.90086 56.934 6.901H53.63C53.5173 6.9006 53.4067 6.93214 53.3111 6.99195C53.2156 7.05177 53.1389 7.13742 53.09 7.239L49.185 17.971L45.28 7.239C45.2309 7.13746 45.1543 7.0518 45.0588 6.99184C44.9632 6.93188 44.8528 6.90005 44.74 6.9H41.436C41.3965 6.9 41.3574 6.90779 41.321 6.92293C41.2845 6.93807 41.2514 6.96026 41.2235 6.98822C41.1956 7.01619 41.1736 7.04938 41.1586 7.08589C41.1435 7.1224 41.1359 7.16152 41.136 7.201C41.1305 7.23004 41.1326 7.26 41.142 7.288ZM68.33 6.89C67.2084 6.58928 66.0365 6.52439 64.8885 6.69943C63.7406 6.87447 62.6413 7.28564 61.6603 7.90698C60.6792 8.52831 59.8377 9.34631 59.1887 10.3093C58.5398 11.2723 58.0976 12.3594 57.89 13.502C57.7086 14.4937 57.7082 15.5101 57.889 16.502C58.1738 18.0685 58.8978 19.5219 59.9767 20.6929C61.0556 21.8638 62.445 22.7042 63.983 23.116C65.3079 23.4725 66.7 23.4984 68.0373 23.1915C69.3745 22.8847 70.6161 22.2544 71.653 21.356C71.7094 21.3007 71.7543 21.2348 71.7852 21.1622C71.8161 21.0895 71.8323 21.0114 71.833 20.9325C71.8336 20.8535 71.8187 20.7752 71.789 20.702C71.7593 20.6288 71.7155 20.5622 71.66 20.506L69.732 18.578C69.6198 18.4683 69.4689 18.4072 69.312 18.408C69.1904 18.4079 69.0716 18.4453 68.972 18.515C68.4209 18.9579 67.773 19.2644 67.0811 19.4097C66.3891 19.555 65.6727 19.5349 64.99 19.351C64.284 19.1627 63.6347 18.805 63.0983 18.3088C62.5619 17.8127 62.1547 17.1932 61.912 16.504H73.904C74.0499 16.5037 74.1907 16.4502 74.3001 16.3536C74.4094 16.2569 74.4798 16.1238 74.498 15.979C74.7329 13.9757 74.2389 11.9547 73.1064 10.2857C71.9738 8.61658 70.2784 7.41088 68.33 6.889V6.89ZM61.912 13.504C62.2901 12.436 63.0569 11.5498 64.0594 11.0222C65.062 10.4945 66.2266 10.3641 67.321 10.657C68.0268 10.8454 68.6759 11.2032 69.2122 11.6994C69.7484 12.1955 70.1554 12.8149 70.398 13.504H61.912ZM77.098 7.5V22.5C77.098 22.659 77.1611 22.8114 77.2734 22.9239C77.3857 23.0364 77.538 23.0997 77.697 23.1H80.397C80.4759 23.1003 80.554 23.0849 80.6269 23.0549C80.6998 23.0248 80.7661 22.9806 80.8219 22.9249C80.8776 22.8691 80.9218 22.8028 80.9519 22.7299C80.9819 22.657 80.9973 22.5789 80.997 22.5V14.977C81.0029 13.8781 81.4106 12.8193 82.1432 12.0002C82.8757 11.181 83.8826 10.6581 84.974 10.53C85.1186 10.5113 85.2514 10.4406 85.3477 10.3311C85.4439 10.2216 85.497 10.0808 85.497 9.935V6.99C85.4967 6.94755 85.4875 6.90564 85.4699 6.867C85.4524 6.82835 85.4269 6.79385 85.3951 6.76573C85.3633 6.73761 85.3259 6.71651 85.2854 6.70381C85.2449 6.6911 85.2022 6.68708 85.16 6.692C83.554 6.95 82.193 7.562 80.997 8.567L80.531 7.287C80.4874 7.17355 80.4105 7.07595 80.3103 7.00706C80.2102 6.93816 80.0915 6.90119 79.97 6.901H77.697C77.5379 6.901 77.3853 6.96422 77.2727 7.07674C77.1602 7.18926 77.097 7.34187 77.097 7.501L77.098 7.5ZM87.773 0.599001V22.5C87.773 22.833 88.043 23.1 88.373 23.1H91.073C91.1518 23.1001 91.2299 23.0847 91.3028 23.0546C91.3756 23.0245 91.4418 22.9803 91.4976 22.9246C91.5533 22.8688 91.5975 22.8026 91.6276 22.7298C91.6577 22.6569 91.6731 22.5788 91.673 22.5V0.600001C91.6731 0.521218 91.6577 0.443185 91.6276 0.370386C91.5975 0.297587 91.5533 0.231457 91.4975 0.175795C91.4417 0.120133 91.3755 0.0760374 91.3027 0.0460405C91.2298 0.0160436 91.1518 0.000737291 91.073 0.00100089H88.373C88.214 0.00100067 88.0616 0.0640775 87.9491 0.176383C87.8366 0.288689 87.7733 0.441044 87.773 0.600001V0.599001ZM93.937 7.288L99.57 22.76C99.619 22.8613 99.6956 22.9467 99.7909 23.0065C99.8862 23.0663 99.9965 23.098 100.109 23.098L97.739 29.612C97.7254 29.6569 97.7225 29.7044 97.7306 29.7506C97.7386 29.7968 97.7574 29.8405 97.7854 29.8781C97.8134 29.9157 97.8499 29.9463 97.8918 29.9673C97.9338 29.9883 97.9801 29.9991 98.027 29.999H101.331C101.444 29.9994 101.554 29.9677 101.65 29.9077C101.745 29.8477 101.822 29.7618 101.87 29.66L104.258 23.098L104.381 22.76L110.013 7.287C110.027 7.2421 110.029 7.19464 110.021 7.14843C110.013 7.10221 109.995 7.05853 109.967 7.0209C109.939 6.98326 109.902 6.95272 109.86 6.93172C109.818 6.91073 109.772 6.89986 109.725 6.9H106.421C106.308 6.89972 106.198 6.9313 106.102 6.99111C106.007 7.05091 105.93 7.1365 105.881 7.238L101.976 17.97L98.071 7.238C98.0219 7.13646 97.9453 7.0508 97.8498 6.99084C97.7542 6.93088 97.6438 6.89905 97.531 6.899H94.227C94.1875 6.899 94.1484 6.90679 94.112 6.92193C94.0755 6.93707 94.0424 6.95926 94.0145 6.98722C93.9866 7.01519 93.9646 7.04838 93.9495 7.08489C93.9345 7.1214 93.9269 7.16052 93.927 7.2C93.9242 7.22938 93.9276 7.25903 93.937 7.287V7.288Z" fill="white"/>
</g>
<defs>
<clipPath id="clip0">
<rect width="111" height="30" fill="white"/>
</clipPath>
</defs>
</svg>
